<svg width="20" height="20" viewBox="0 0 20 20" fill="none" xmlns="http://www.w3.org/2000/svg">
<path fill-rule="evenodd" clip-rule="evenodd" d="M20 10C20 15.5228 15.5228 20 10 20C4.47715 20 0 15.5228 0 10C0 4.47715 4.47715 0 10 0C15.5228 0 20 4.47715 20 10ZM11.1606 7.39939C10.8582 7.39515 10.6903 7.5297 10.6903 7.8406C10.6887 8.02699 10.6892 8.21285 10.6897 8.41331C10.69 8.51921 10.6903 8.62918 10.6903 8.74545H12.1036C12.0577 9.22297 12.0148 9.66011 11.9709 10.1071C11.9627 10.1912 11.9544 10.2755 11.9461 10.3606H10.6946V14.8297H8.81031V10.3794H7.9388V8.7703H8.79759V7.85454C8.8085 6.52545 9.49334 5.84485 10.8267 5.84061H12.0467V7.39939C11.947 7.39939 11.8487 7.39987 11.7507 7.40034C11.5557 7.40128 11.3619 7.40222 11.1606 7.39939Z" fill="#98C552"/>
</svg>
