<svg width="20" height="21" viewBox="0 0 20 21" fill="none" xmlns="http://www.w3.org/2000/svg">
<path fill-rule="evenodd" clip-rule="evenodd" d="M20 10.9316C20 16.4545 15.5228 20.9316 10 20.9316C4.47715 20.9316 0 16.4545 0 10.9316C0 5.40879 4.47715 0.931641 10 0.931641C15.5228 0.931641 20 5.40879 20 10.9316ZM11.1606 8.33103C10.8582 8.32679 10.6903 8.46134 10.6903 8.77225C10.6887 8.95863 10.6892 9.14449 10.6897 9.34495C10.69 9.45085 10.6903 9.56082 10.6903 9.67709H12.1036C12.0577 10.1546 12.0148 10.5918 11.9709 11.0388C11.9627 11.1228 11.9544 11.2072 11.9461 11.2922H10.6946V15.7613H8.81031V11.311H7.9388V9.70194H8.79759V8.78618C8.8085 7.45709 9.49334 6.77649 10.8267 6.77225H12.0467V8.33103C11.947 8.33103 11.8487 8.33151 11.7507 8.33198C11.5557 8.33292 11.3619 8.33386 11.1606 8.33103Z" fill="url(#paint0_linear_1179_707)"/>
<defs>
<linearGradient id="paint0_linear_1179_707" x1="8.99999" y1="0.931642" x2="30.4067" y2="25.2149" gradientUnits="userSpaceOnUse">
<stop stop-color="#96CC43"/>
<stop offset="1" stop-color="#1497D5"/>
</linearGradient>
</defs>
</svg>
