<svg width="20" height="21" viewBox="0 0 20 21" fill="none" xmlns="http://www.w3.org/2000/svg">
<path fill-rule="evenodd" clip-rule="evenodd" d="M20 10.9316C20 16.4545 15.5228 20.9316 10 20.9316C4.47715 20.9316 0 16.4545 0 10.9316C0 5.40879 4.47715 0.931641 10 0.931641C15.5228 0.931641 20 5.40879 20 10.9316ZM14.8625 10.4477C14.8619 10.6097 14.8613 10.7716 14.8613 10.933C14.8664 10.935 14.8711 10.9379 14.8753 10.9415L14.871 11.291C14.8655 11.7542 14.86 12.2179 14.8498 12.6809C14.8514 13.0625 14.8062 13.4429 14.7153 13.8136C14.627 14.1774 14.4579 14.5166 14.2206 14.8061C13.9833 15.0956 13.6838 15.3278 13.3444 15.4857C13.0557 15.6219 12.7465 15.7089 12.4292 15.7433C11.9146 15.7934 11.3976 15.8137 10.8807 15.8039C10.1086 15.8057 9.33708 15.8057 8.56557 15.7948C8.2306 15.7919 7.89602 15.7716 7.56314 15.7342C6.97596 15.6812 6.42299 15.4348 5.99102 15.0336C5.59338 14.6487 5.32776 14.1478 5.23223 13.6027C5.17843 13.2999 5.14984 12.9932 5.14678 12.6857C5.11587 11.6015 5.12132 10.5172 5.13951 9.43359C5.14738 9.12147 5.16375 8.80874 5.20011 8.49844C5.25244 7.91935 5.49298 7.37334 5.88496 6.94389C6.27109 6.53608 6.7784 6.26362 7.33163 6.16692C7.63351 6.11235 7.93942 6.08296 8.24617 6.07904C9.33708 6.04813 10.428 6.05359 11.5189 6.07177C11.8248 6.07652 12.1302 6.09675 12.434 6.13238C12.8096 6.16339 13.1738 6.276 13.5014 6.46232C13.8289 6.64865 14.1118 6.90421 14.3304 7.21116C14.5563 7.54176 14.7069 7.91787 14.7716 8.31298C14.8351 8.69632 14.8651 9.08445 14.8613 9.47298C14.865 9.79758 14.8637 10.123 14.8625 10.4476V10.4477ZM13.9153 13.3748C13.9606 13.0884 13.9825 12.7987 13.9807 12.5087L13.9837 12.5075C13.9989 11.3815 14.0062 10.2542 13.9698 9.1245C13.9668 8.86334 13.9382 8.6031 13.8844 8.34753C13.8039 7.95367 13.5855 7.60145 13.2686 7.35419C13.0245 7.17669 12.7411 7.06087 12.4425 7.01662C12.1531 6.97123 11.8604 6.94934 11.5674 6.95116C10.4437 6.9348 9.3195 6.92571 8.19587 6.96025C7.93346 6.96246 7.67194 6.99109 7.41526 7.04571C7.01955 7.12766 6.66641 7.34896 6.42011 7.66934C6.24471 7.91288 6.1302 8.19489 6.08617 8.49177C6.04119 8.77477 6.0195 9.06098 6.02132 9.34753C6.00132 10.4809 5.99405 11.6106 6.0286 12.7415C6.03071 13.0027 6.05934 13.263 6.11405 13.5184C6.19567 13.917 6.41976 14.272 6.74435 14.5172C6.98582 14.6905 7.26539 14.8031 7.5595 14.8457C7.86657 14.8944 8.1771 14.9179 8.48799 14.916C8.822 14.9196 9.15681 14.9184 9.49189 14.9172H9.4921C9.65977 14.9166 9.82752 14.916 9.99526 14.916V14.933L10.0131 14.9327C10.5993 14.9237 11.1867 14.9147 11.7728 14.9039C12.0469 14.9039 12.3202 14.8746 12.588 14.8166C12.9537 14.7402 13.2838 14.5447 13.5268 14.2609C13.7339 14.006 13.8682 13.6998 13.9153 13.3748ZM10.0025 8.43116C9.50783 8.43057 9.02404 8.57668 8.61237 8.85105C8.2007 9.12541 7.87965 9.5157 7.6898 9.97254C7.49996 10.4294 7.44984 10.9323 7.54582 11.4176C7.64179 11.9029 7.87953 12.3489 8.22897 12.6991C8.5784 13.0493 9.02384 13.288 9.50895 13.385C9.99406 13.482 10.4971 13.433 10.9543 13.2442C11.4116 13.0553 11.8025 12.7351 12.0778 12.3241C12.3531 11.913 12.5002 11.4295 12.5007 10.9348C12.4999 10.272 12.2366 9.63646 11.7685 9.16727C11.3003 8.69807 10.6654 8.43341 10.0025 8.43116ZM9.99709 12.556C9.67601 12.5553 9.36236 12.4593 9.09581 12.2803C8.82927 12.1013 8.62181 11.8473 8.49968 11.5503C8.37756 11.2534 8.34626 10.9269 8.40974 10.6121C8.47322 10.2974 8.62862 10.0085 8.8563 9.78211C9.08397 9.55571 9.37368 9.40193 9.68878 9.34022C10.0039 9.27851 10.3302 9.31163 10.6265 9.43542C10.9227 9.5592 11.1756 9.76808 11.3531 10.0356C11.5307 10.3032 11.6248 10.6174 11.6238 10.9384C11.622 11.3685 11.4498 11.7803 11.1448 12.0835C10.8399 12.3867 10.4271 12.5567 9.99709 12.556ZM12.2734 7.85057C12.3691 7.78597 12.4817 7.75116 12.5971 7.75056C12.6739 7.75 12.7499 7.76462 12.821 7.79356C12.8921 7.8225 12.9567 7.86521 13.0113 7.91922C13.0658 7.97323 13.1091 8.03748 13.1387 8.10828C13.1683 8.17908 13.1836 8.25503 13.1838 8.33177C13.1843 8.44718 13.1505 8.56014 13.0868 8.65637C13.0231 8.75259 12.9323 8.82778 12.8259 8.87241C12.7194 8.91704 12.6022 8.92912 12.4889 8.90712C12.3756 8.88512 12.2714 8.83003 12.1894 8.74881C12.1074 8.66758 12.0513 8.56388 12.0283 8.4508C12.0052 8.33772 12.0162 8.22035 12.0598 8.11351C12.1035 8.00667 12.1778 7.91517 12.2734 7.85057Z" fill="url(#paint0_linear_1179_683)"/>
<defs>
<linearGradient id="paint0_linear_1179_683" x1="9" y1="0.931642" x2="30.4068" y2="25.2149" gradientUnits="userSpaceOnUse">
<stop stop-color="#96CC43"/>
<stop offset="1" stop-color="#1497D5"/>
</linearGradient>
</defs>
</svg>
