<svg width="20" height="20" viewBox="0 0 20 20" fill="none" xmlns="http://www.w3.org/2000/svg">
<path fill-rule="evenodd" clip-rule="evenodd" d="M20 10C20 15.5228 15.5228 20 10 20C4.47715 20 0 15.5228 0 10C0 4.47715 4.47715 0 10 0C15.5228 0 20 4.47715 20 10ZM14.8625 9.51609C14.8619 9.67811 14.8613 9.83993 14.8613 10.0013C14.8664 10.0034 14.8711 10.0063 14.8753 10.0098L14.871 10.3593C14.8655 10.8226 14.86 11.2863 14.8498 11.7492C14.8514 12.1309 14.8062 12.5113 14.7153 12.8819C14.627 13.2457 14.4579 13.585 14.2206 13.8744C13.9833 14.1639 13.6838 14.3962 13.3444 14.5541C13.0557 14.6902 12.7465 14.7773 12.4292 14.8116C11.9146 14.8618 11.3976 14.882 10.8807 14.8722C10.1086 14.8741 9.33708 14.8741 8.56557 14.8632C8.2306 14.8602 7.89602 14.84 7.56314 14.8026C6.97596 14.7496 6.42299 14.5032 5.99102 14.1019C5.59338 13.717 5.32776 13.2161 5.23223 12.671C5.17843 12.3683 5.14984 12.0616 5.14678 11.7541C5.11587 10.6698 5.12132 9.58558 5.13951 8.50195C5.14738 8.18983 5.16375 7.8771 5.20011 7.5668C5.25244 6.98771 5.49298 6.4417 5.88496 6.01225C6.27109 5.60444 6.7784 5.33198 7.33163 5.23528C7.63351 5.18071 7.93942 5.15132 8.24617 5.1474C9.33708 5.11649 10.428 5.12195 11.5189 5.14013C11.8248 5.14488 12.1302 5.16511 12.434 5.20073C12.8096 5.23175 13.1738 5.34436 13.5014 5.53068C13.8289 5.71701 14.1118 5.97257 14.3304 6.27952C14.5563 6.61012 14.7069 6.98623 14.7716 7.38134C14.8351 7.76468 14.8651 8.15281 14.8613 8.54134C14.865 8.86594 14.8637 9.19134 14.8625 9.51593V9.51609ZM13.9153 12.4432C13.9606 12.1567 13.9825 11.8671 13.9807 11.5771L13.9837 11.5759C13.9989 10.4498 14.0062 9.32255 13.9698 8.19286C13.9668 7.93169 13.9382 7.67146 13.8844 7.41589C13.8039 7.02203 13.5855 6.66981 13.2686 6.42255C13.0245 6.24505 12.7411 6.12923 12.4425 6.08498C12.1531 6.03959 11.8604 6.0177 11.5674 6.01952C10.4437 6.00316 9.3195 5.99407 8.19587 6.02861C7.93346 6.03082 7.67194 6.05945 7.41526 6.11407C7.01955 6.19602 6.66641 6.41732 6.42011 6.7377C6.24471 6.98124 6.1302 7.26325 6.08617 7.56013C6.04119 7.84313 6.0195 8.12934 6.02132 8.41589C6.00132 9.54922 5.99405 10.6789 6.0286 11.8098C6.03071 12.071 6.05934 12.3314 6.11405 12.5868C6.19567 12.9853 6.41976 13.3404 6.74435 13.5856C6.98582 13.7588 7.26539 13.8715 7.5595 13.9141C7.86657 13.9628 8.1771 13.9863 8.48799 13.9844C8.822 13.988 9.15681 13.9868 9.49189 13.9856H9.4921C9.65977 13.985 9.82752 13.9844 9.99526 13.9844V14.0013L10.0131 14.0011C10.5993 13.9921 11.1867 13.983 11.7728 13.9722C12.0469 13.9722 12.3202 13.943 12.588 13.885C12.9537 13.8085 13.2838 13.6131 13.5268 13.3292C13.7339 13.0744 13.8682 12.7682 13.9153 12.4432ZM10.0025 7.49952C9.50783 7.49892 9.02404 7.64504 8.61237 7.91941C8.2007 8.19377 7.87965 8.58406 7.6898 9.0409C7.49996 9.49774 7.44984 10.0006 7.54582 10.4859C7.64179 10.9713 7.87953 11.4172 8.22897 11.7674C8.5784 12.1176 9.02384 12.3563 9.50895 12.4534C9.99406 12.5504 10.4971 12.5014 10.9543 12.3125C11.4116 12.1237 11.8025 11.8035 12.0778 11.3924C12.3531 10.9813 12.5002 10.4979 12.5007 10.0032C12.4999 9.34034 12.2366 8.70482 11.7685 8.23563C11.3003 7.76643 10.6654 7.50177 10.0025 7.49952ZM9.99709 11.6244C9.67601 11.6237 9.36236 11.5277 9.09581 11.3487C8.82927 11.1697 8.62181 10.9156 8.49968 10.6187C8.37756 10.3217 8.34626 9.99521 8.40974 9.68047C8.47322 9.36572 8.62862 9.07687 8.8563 8.85047C9.08397 8.62407 9.37368 8.47029 9.68878 8.40858C10.0039 8.34686 10.3302 8.37999 10.6265 8.50377C10.9227 8.62756 11.1756 8.83644 11.3531 9.10398C11.5307 9.37152 11.6248 9.68571 11.6238 10.0068C11.622 10.4368 11.4498 10.8486 11.1448 11.1519C10.8399 11.4551 10.4271 11.625 9.99709 11.6244ZM12.2734 6.91893C12.3691 6.85432 12.4817 6.81952 12.5971 6.81892C12.6739 6.81836 12.7499 6.83298 12.821 6.86192C12.8921 6.89086 12.9567 6.93357 13.0113 6.98758C13.0658 7.04159 13.1091 7.10584 13.1387 7.17664C13.1683 7.24744 13.1836 7.32339 13.1838 7.40013C13.1843 7.51554 13.1505 7.62849 13.0868 7.72472C13.0231 7.82095 12.9323 7.89614 12.8259 7.94077C12.7194 7.9854 12.6022 7.99748 12.4889 7.97548C12.3756 7.95348 12.2714 7.89839 12.1894 7.81716C12.1074 7.73594 12.0513 7.63224 12.0283 7.51916C12.0052 7.40608 12.0162 7.28871 12.0598 7.18187C12.1035 7.07503 12.1778 6.98353 12.2734 6.91893Z" fill="#98C552"/>
</svg>
