<svg width="200" height="60" viewBox="0 0 200 60" fill="none" xmlns="http://www.w3.org/2000/svg">
<path d="M161.622 31.5662H170.216C171.268 31.5662 172.124 30.7102 172.124 29.6578V26.0916H161.622V21.7512H175.396V16.2766H158.056C157.004 16.2766 156.148 17.1327 156.148 18.1851V42.7936H175.396V37.319H161.622V31.5662Z" fill="white"/>
<path d="M141.421 16.2766H135.586C134.534 16.2766 133.678 17.1327 133.678 18.1851V21.7512H141.421V42.7936H146.896V21.7512H154.671V16.2766H141.421Z" fill="white"/>
<path d="M75.9878 16.2766H72.7161L68.0921 33.5729L63.4681 16.2766H56.6303C55.578 16.2766 54.7219 17.1327 54.7219 18.1851V42.7936H60.1965V24.5212L65.0822 42.7936H71.1021L75.9878 24.5212V42.7936H81.4624V16.2766H75.9878Z" fill="white"/>
<path d="M126.155 16.2766L120.986 24.3849L115.822 16.2766H109.252L117.703 29.5324L109.252 42.7936H115.822L120.986 34.6853L126.155 42.7936H132.726L124.274 29.5324L132.726 16.2766H126.155Z" fill="white"/>
<path d="M97.281 16.2766H93.1532C92.3462 16.2766 91.6319 16.7946 91.3811 17.558L83.0765 42.7936H88.5511L90.3178 37.4226H100.389L102.156 42.7936H107.63L98.906 16.2766H97.2701H97.281ZM91.8664 32.7386L95.3616 22.1111L98.8569 32.7386H91.8664Z" fill="white"/>
<path d="M187.558 21.5822H187.923C190.519 21.5822 192.765 23.0763 193.856 25.2465H199.298V23.2726C197.624 18.6704 193.218 15.377 188.038 15.377H186.903C180.284 15.377 174.918 20.7425 174.918 27.3622V31.9589C174.918 38.5786 180.284 43.9442 186.903 43.9442H188.038C193.229 43.9442 197.635 40.6398 199.298 36.0212V33.4039H194.145C193.201 35.934 190.775 37.7389 187.918 37.7389H187.552C183.883 37.7389 180.905 34.7616 180.905 31.0919V28.2292C180.905 24.5595 183.883 21.5822 187.552 21.5822H187.558Z" fill="white"/>
<path d="M54.9173 55.035V50.2039H55.6752L57.5019 52.8321L59.3123 50.2039H60.0865V55.035H59.0069V52.4777L57.6928 54.3534H57.3002L55.986 52.4777V55.035H54.9173Z" fill="white"/>
<path d="M65.5377 55.035L65.216 54.059H63.5965L63.2639 55.035H62.1406L63.951 50.2039H64.8943L66.6664 55.035H65.5432H65.5377ZM64.4144 51.5834L63.891 53.1157H64.9325L64.4144 51.5834Z" fill="white"/>
<path d="M68.7243 50.1982H69.8094V55.0294H68.7243V50.1982Z" fill="white"/>
<path d="M71.9328 54.2388L72.5217 53.4645C72.8816 53.8898 73.3178 54.1024 73.8358 54.1024C74.2012 54.1024 74.4684 53.9334 74.4684 53.6662C74.4684 53.4917 74.332 53.3391 74.0485 53.2136L73.6177 53.0555C73.3451 52.9519 73.1324 52.8592 72.9961 52.7883C72.4781 52.5048 72.2163 52.0958 72.2163 51.5669C72.2163 51.147 72.3745 50.8035 72.6962 50.5254C73.0179 50.2528 73.4323 50.1165 73.9394 50.1165C74.5829 50.1165 75.1281 50.3346 75.5807 50.7544L75.0464 51.5614C74.7628 51.2943 74.3157 51.1307 73.9558 51.1307C73.5959 51.1307 73.3778 51.2943 73.3778 51.5287C73.3778 51.6923 73.5087 51.8341 73.7704 51.954L74.2393 52.1449C74.4902 52.243 74.6701 52.3139 74.7955 52.3739C75.379 52.6356 75.668 53.0501 75.668 53.6008C75.668 54.037 75.4989 54.4024 75.1554 54.6859C74.8228 54.9694 74.3757 55.1112 73.8304 55.1112C73.067 55.1112 72.3799 54.8059 71.9328 54.2333V54.2388Z" fill="white"/>
<path d="M83.7832 55.035L83.4615 54.059H81.842L81.5094 55.035H80.3861L82.1964 50.2039H83.1398L84.9119 55.035H83.7887H83.7832ZM82.6599 51.5834L82.1365 53.1157H83.1779L82.6599 51.5834Z" fill="white"/>
<path d="M86.9767 55.035V50.2039H87.7347L89.5614 52.8321L91.3717 50.2039H92.146V55.035H91.0663V52.4777L89.7522 54.3534H89.3596L88.0455 52.4777V55.035H86.9767Z" fill="white"/>
<path d="M94.671 50.1982H95.7561V55.0294H94.671V50.1982Z" fill="white"/>
<path d="M98.2809 55.035V50.2039H101.656V51.2126H99.366V52.1069H101.487V53.1047H99.366V54.0263H101.651V55.035H98.2809Z" fill="white"/>
<path d="M107.167 50.1982H108.225V55.0294H107.445L105.084 52.2321V55.0294H104.016V50.1982H104.746L107.162 53.0228V50.1982H107.167Z" fill="white"/>
<path d="M111.697 51.2397H110.328V50.1982H114.139V51.2397H112.776V55.0349H111.691V51.2397H111.697Z" fill="white"/>
<path d="M118.735 55.035L118.413 54.059H116.794L116.461 55.035H115.338L117.148 50.2039H118.091L119.864 55.035H118.74H118.735ZM117.612 51.5834L117.088 53.1157H118.13L117.612 51.5834Z" fill="white"/>
<path d="M121.922 55.035V50.2039H123.007V54.0045H125.412V55.035H121.922Z" fill="white"/>
<path d="M131.176 51.2397H129.807V50.1982H133.618V51.2397H132.255V55.0349H131.17V51.2397H131.176Z" fill="white"/>
<path d="M136.031 50.8471C136.521 50.3564 137.116 50.1165 137.83 50.1165C138.544 50.1165 139.139 50.3564 139.624 50.8471C140.115 51.3324 140.355 51.9213 140.355 52.6193C140.355 53.3172 140.115 53.9061 139.629 54.3914C139.144 54.8713 138.544 55.1112 137.825 55.1112C137.105 55.1112 136.505 54.8713 136.025 54.3914C135.545 53.9116 135.305 53.3282 135.305 52.6247C135.305 51.9213 135.545 51.3324 136.031 50.8471ZM138.828 53.639C139.095 53.3663 139.231 53.0228 139.226 52.6193C139.22 52.2049 139.084 51.8613 138.812 51.5942C138.544 51.3215 138.212 51.1797 137.825 51.1797C137.437 51.1797 137.099 51.3161 136.832 51.5942C136.565 51.8668 136.429 52.2103 136.429 52.6193C136.429 53.0282 136.565 53.3663 136.832 53.639C137.099 53.9061 137.432 54.0425 137.825 54.0425C138.217 54.0425 138.555 53.9061 138.822 53.639H138.828Z" fill="white"/>
<path d="M142.609 55.035V50.2039H144.54C145.281 50.2039 145.854 50.422 146.268 50.8582C146.688 51.289 146.895 51.8779 146.895 52.6249C146.895 53.3719 146.688 53.9608 146.263 54.3916C145.837 54.8224 145.254 55.0405 144.512 55.0405H142.615L142.609 55.035ZM143.689 53.9935H144.551C144.943 53.9935 145.243 53.8627 145.456 53.601C145.674 53.3338 145.777 53.0066 145.777 52.614C145.777 52.2214 145.674 51.8942 145.456 51.6325C145.249 51.3708 144.943 51.2399 144.551 51.2399H143.689V53.9935Z" fill="white"/>
<path d="M149.638 50.8471C150.129 50.3564 150.723 50.1165 151.437 50.1165C152.152 50.1165 152.746 50.3564 153.231 50.8471C153.722 51.3324 153.962 51.9213 153.962 52.6193C153.962 53.3172 153.722 53.9061 153.237 54.3914C152.751 54.8713 152.152 55.1112 151.432 55.1112C150.712 55.1112 150.112 54.8713 149.632 54.3914C149.153 53.9116 148.913 53.3282 148.913 52.6247C148.913 51.9213 149.153 51.3324 149.638 50.8471ZM152.435 53.639C152.702 53.3663 152.839 53.0228 152.833 52.6193C152.828 52.2049 152.691 51.8613 152.419 51.5942C152.152 51.3215 151.819 51.1797 151.432 51.1797C151.045 51.1797 150.707 51.3161 150.439 51.5942C150.172 51.8668 150.036 52.2103 150.036 52.6193C150.036 53.0282 150.172 53.3663 150.439 53.639C150.707 53.9061 151.039 54.0425 151.432 54.0425C151.824 54.0425 152.163 53.9061 152.43 53.639H152.435Z" fill="white"/>
<path d="M155.764 54.2388L156.353 53.4645C156.713 53.8898 157.149 54.1024 157.667 54.1024C158.032 54.1024 158.3 53.9334 158.3 53.6662C158.3 53.4917 158.163 53.3391 157.88 53.2136L157.449 53.0555C157.176 52.9519 156.964 52.8592 156.827 52.7883C156.309 52.5048 156.048 52.0958 156.048 51.5669C156.048 51.147 156.206 50.8035 156.527 50.5254C156.849 50.2528 157.269 50.1165 157.771 50.1165C158.409 50.1165 158.959 50.3346 159.412 50.7544L158.878 51.5614C158.594 51.2943 158.147 51.1307 157.787 51.1307C157.427 51.1307 157.214 51.2943 157.214 51.5287C157.214 51.6923 157.345 51.8341 157.607 51.954L158.076 52.1449C158.327 52.243 158.507 52.3139 158.632 52.3739C159.216 52.6356 159.499 53.0501 159.499 53.6008C159.499 54.037 159.33 54.4024 158.987 54.6859C158.654 54.9694 158.207 55.1112 157.662 55.1112C156.898 55.1112 156.211 54.8059 155.764 54.2333V54.2388Z" fill="white"/>
<path d="M165.314 50.8471C165.805 50.3564 166.399 50.1165 167.114 50.1165C167.828 50.1165 168.422 50.3564 168.908 50.8471C169.398 51.3324 169.638 51.9213 169.638 52.6193C169.638 53.3172 169.398 53.9061 168.913 54.3914C168.428 54.8713 167.828 55.1112 167.108 55.1112C166.389 55.1112 165.789 54.8713 165.309 54.3914C164.829 53.9116 164.589 53.3282 164.589 52.6247C164.589 51.9213 164.829 51.3324 165.314 50.8471ZM168.112 53.639C168.379 53.3663 168.515 53.0228 168.51 52.6193C168.504 52.2049 168.368 51.8613 168.095 51.5942C167.828 51.3215 167.495 51.1797 167.108 51.1797C166.721 51.1797 166.383 51.3161 166.116 51.5942C165.849 51.8668 165.712 52.2103 165.712 52.6193C165.712 53.0282 165.849 53.3663 166.116 53.639C166.383 53.9061 166.716 54.0425 167.108 54.0425C167.501 54.0425 167.839 53.9061 168.106 53.639H168.112Z" fill="white"/>
<path d="M171.441 54.2388L172.03 53.4645C172.39 53.8898 172.826 54.1024 173.344 54.1024C173.71 54.1024 173.977 53.9334 173.977 53.6662C173.977 53.4917 173.841 53.3391 173.557 53.2136L173.126 53.0555C172.854 52.9519 172.641 52.8592 172.505 52.7883C171.987 52.5048 171.725 52.0958 171.725 51.5669C171.725 51.147 171.883 50.8035 172.205 50.5254C172.526 50.2528 172.946 50.1165 173.448 50.1165C174.086 50.1165 174.637 50.3346 175.089 50.7544L174.555 51.5614C174.271 51.2943 173.824 51.1307 173.464 51.1307C173.104 51.1307 172.892 51.2943 172.892 51.5287C172.892 51.6923 173.023 51.8341 173.284 51.954L173.753 52.1449C174.004 52.243 174.184 52.3139 174.31 52.3739C174.893 52.6356 175.177 53.0501 175.177 53.6008C175.177 54.037 175.007 54.4024 174.664 54.6859C174.331 54.9694 173.884 55.1112 173.339 55.1112C172.576 55.1112 171.888 54.8059 171.441 54.2333V54.2388Z" fill="white"/>
<path d="M180.534 55.035V50.2039H182.464C183.206 50.2039 183.779 50.422 184.193 50.8582C184.613 51.289 184.82 51.8779 184.82 52.6249C184.82 53.3719 184.613 53.9608 184.188 54.3916C183.762 54.8224 183.179 55.0405 182.437 55.0405H180.54L180.534 55.035ZM181.614 53.9935H182.475C182.868 53.9935 183.168 53.8627 183.381 53.601C183.599 53.3338 183.702 53.0066 183.702 52.614C183.702 52.2214 183.599 51.8942 183.381 51.6325C183.173 51.3708 182.868 51.2399 182.475 51.2399H181.614V53.9935Z" fill="white"/>
<path d="M187.104 50.1982H188.19V55.0294H187.104V50.1982Z" fill="white"/>
<path d="M193.643 55.035L193.321 54.059H191.701L191.369 55.035H190.246L192.056 50.2039H192.999L194.771 55.035H193.648H193.643ZM192.519 51.5834L191.996 53.1157H193.037L192.519 51.5834Z" fill="white"/>
<path d="M196.265 54.2388L196.854 53.4645C197.214 53.8898 197.65 54.1024 198.168 54.1024C198.533 54.1024 198.8 53.9334 198.8 53.6662C198.8 53.4917 198.664 53.3391 198.381 53.2136L197.95 53.0555C197.677 52.9519 197.464 52.8592 197.328 52.7883C196.81 52.5048 196.548 52.0958 196.548 51.5669C196.548 51.147 196.707 50.8035 197.028 50.5254C197.35 50.2528 197.77 50.1165 198.271 50.1165C198.909 50.1165 199.46 50.3346 199.913 50.7544L199.378 51.5614C199.095 51.2943 198.648 51.1307 198.288 51.1307C197.928 51.1307 197.715 51.2943 197.715 51.5287C197.715 51.6923 197.846 51.8341 198.108 51.954L198.577 52.1449C198.828 52.243 199.008 52.3139 199.133 52.3739C199.716 52.6356 200 53.0501 200 53.6008C200 54.037 199.831 54.4024 199.487 54.6859C199.155 54.9694 198.708 55.1112 198.162 55.1112C197.399 55.1112 196.712 54.8059 196.265 54.2333V54.2388Z" fill="white"/>
<path d="M42.9232 4.1005C42.4598 1.51042 42.0508 0 42.0508 0C42.0508 0 38.7082 0.959692 33.8334 3.13536C34.0952 4.46039 34.406 6.27617 34.6677 8.45183C37.6449 6.63605 40.4858 5.19651 42.9232 4.09505V4.1005Z" fill="white"/>
<path d="M22.2915 50.8035C22.1443 50.7217 22.0025 50.629 21.8553 50.5417C16.7842 53.2027 10.508 53.3172 5.15879 50.28C4.03552 49.642 3.01584 48.895 2.08887 48.0662C3.78469 51.4687 6.47837 54.4187 10.0336 56.4362C18.1692 61.0493 28.175 59.2771 34.2876 52.7283C30.3289 53.519 26.0757 52.9519 22.286 50.8035H22.2915Z" fill="white"/>
<path d="M15.7404 27.073C20.5389 18.6157 27.9383 12.5631 34.6725 8.45173C34.4108 6.27061 34.1 4.46028 33.8382 3.13525C24.8138 7.17032 10.5493 15.3822 2.58279 29.4286C-0.797942 35.3885 -0.754319 42.3627 2.09749 48.0663C3.01902 48.8951 4.03869 49.6422 5.16742 50.2801C10.5166 53.3173 16.7928 53.2028 21.8639 50.5419C13.8374 45.678 11.0892 35.2904 15.7458 27.073H15.7404Z" fill="url(#paint0_linear_596_112)"/>
<path d="M34.6694 8.452C35.6945 17.062 35.9017 31.3701 28.8895 43.7261C27.1827 46.7361 24.7072 49.0372 21.8553 50.5367C21.9971 50.6239 22.1443 50.7112 22.2916 50.7984C26.0813 52.9468 30.329 53.5139 34.2932 52.7233C35.3347 51.6109 36.2616 50.3622 37.0468 48.9772C46.502 32.308 44.4299 12.5034 42.925 4.09521C40.493 5.19668 37.6466 6.63622 34.6694 8.452Z" fill="url(#paint1_linear_596_112)"/>
<defs>
<linearGradient id="paint0_linear_596_112" x1="17.9356" y1="2.68295" x2="16.4601" y2="52.6527" gradientUnits="userSpaceOnUse">
<stop stop-color="white"/>
<stop offset="0.39" stop-color="white"/>
<stop offset="0.79" stop-color="white"/>
</linearGradient>
<linearGradient id="paint1_linear_596_112" x1="33.9518" y1="3.85108" x2="32.4926" y2="53.1404" gradientUnits="userSpaceOnUse">
<stop stop-color="white"/>
</linearGradient>
</defs>
</svg>
