<svg width="122" height="123" viewBox="0 0 122 123" fill="none" xmlns="http://www.w3.org/2000/svg">
<path d="M84.0288 88.6248H89.8213C90.5307 88.6248 91.1078 88.0477 91.1078 87.3383V84.9346H84.0288V82.0089H93.313V78.3187H81.625C80.9157 78.3187 80.3386 78.8958 80.3386 79.6051V96.1926H93.313V92.5024H84.0288V88.6248Z" fill="#2189CA"/>
<path d="M70.4111 78.3187H66.4783C65.7689 78.3187 65.1919 78.8958 65.1919 79.6051V82.0089H70.4111V96.1926H74.1012V82.0089H79.3425V78.3187H70.4111Z" fill="#2189CA"/>
<path d="M26.3054 78.3187H24.1001L20.9833 89.9773L17.8665 78.3187H13.2575C12.5481 78.3187 11.9711 78.8958 11.9711 79.6051V96.1926H15.6612V83.876L18.9545 96.1926H23.0122L26.3054 83.876V96.1926H29.9956V78.3187H26.3054Z" fill="#2189CA"/>
<path d="M60.1198 78.3187L56.6354 83.7842L53.1548 78.3187H48.7258L54.4228 87.2575L48.7258 96.1926H53.1548L56.6354 90.7271L60.1198 96.1926H64.5487L58.8518 87.2575L64.5487 78.3187H60.1198Z" fill="#2189CA"/>
<path d="M40.6581 78.3187H37.8758C37.3318 78.3187 36.8503 78.6679 36.6812 79.1825L31.0835 96.1926H34.7737L35.9645 92.5722H42.7531L43.944 96.1926H47.6342L41.7534 78.3187H40.6508H40.6581ZM37.0084 89.415L39.3643 82.2515L41.7203 89.415H37.0084Z" fill="#2189CA"/>
<path d="M101.509 81.8986H101.756C103.505 81.8986 105.019 82.9057 105.754 84.3685H109.423V83.038C108.294 79.9359 105.324 77.7159 101.833 77.7159H101.068C96.6062 77.7159 92.9895 81.3326 92.9895 85.7946V88.8931C92.9895 93.3551 96.6062 96.9717 101.068 96.9717H101.833C105.332 96.9717 108.302 94.7444 109.423 91.6313V89.8671H105.949C105.313 91.5725 103.678 92.7891 101.752 92.7891H101.506C99.032 92.7891 97.0252 90.7822 97.0252 88.3087V86.379C97.0252 83.9054 99.032 81.8986 101.506 81.8986H101.509Z" fill="#2189CA"/>
<path d="M12.1034 104.444V101.188H12.6143L13.8456 102.959L15.0658 101.188H15.5877V104.444H14.86V102.72L13.9742 103.985H13.7096L12.8238 102.72V104.444H12.1034Z" fill="#0E8754"/>
<path d="M19.2595 104.444L19.0427 103.786H17.9511L17.7269 104.444H16.9697L18.19 101.188H18.8258L20.0204 104.444H19.2632H19.2595ZM18.5024 102.117L18.1496 103.15H18.8516L18.5024 102.117Z" fill="#0E8754"/>
<path d="M21.4097 101.188H22.1411V104.444H21.4097V101.188Z" fill="#0E8754"/>
<path d="M23.5709 103.911L23.9679 103.389C24.2105 103.676 24.5045 103.819 24.8537 103.819C25.0999 103.819 25.28 103.705 25.28 103.525C25.28 103.407 25.1881 103.305 24.997 103.22L24.7066 103.113C24.5229 103.044 24.3795 102.981 24.2876 102.933C23.9385 102.742 23.762 102.467 23.762 102.11C23.762 101.827 23.8686 101.595 24.0855 101.408C24.3023 101.224 24.5817 101.132 24.9235 101.132C25.3572 101.132 25.7248 101.279 26.0298 101.562L25.6696 102.106C25.4785 101.926 25.1771 101.816 24.9345 101.816C24.6919 101.816 24.5449 101.926 24.5449 102.084C24.5449 102.195 24.6331 102.29 24.8096 102.371L25.1256 102.5C25.2947 102.566 25.416 102.614 25.5005 102.654C25.8938 102.83 26.0886 103.11 26.0886 103.481C26.0886 103.775 25.9747 104.021 25.7431 104.212C25.5189 104.403 25.2175 104.499 24.85 104.499C24.3354 104.499 23.8723 104.293 23.5709 103.907V103.911Z" fill="#0E8754"/>
<path d="M31.5613 104.444L31.3445 103.786H30.2528L30.0286 104.444H29.2715L30.4917 101.188H31.1276L32.3221 104.444H31.565H31.5613ZM30.8042 102.117L30.4513 103.15H31.1533L30.8042 102.117Z" fill="#0E8754"/>
<path d="M33.7115 104.444V101.188H34.2224L35.4537 102.959L36.674 101.188H37.1959V104.444H36.4682V102.72L35.5824 103.985H35.3177L34.4319 102.72V104.444H33.7115Z" fill="#0E8754"/>
<path d="M38.8976 101.188H39.629V104.444H38.8976V101.188Z" fill="#0E8754"/>
<path d="M41.3308 104.444V101.188H43.6059V101.867H42.0622V102.47H43.492V103.143H42.0622V103.764H43.6023V104.444H41.3308Z" fill="#0E8754"/>
<path d="M47.3218 101.188H48.0349V104.444H47.5093L45.9178 102.558V104.444H45.1974V101.188H45.6899L47.3181 103.091V101.188H47.3218Z" fill="#0E8754"/>
<path d="M50.3762 101.886H49.4536V101.184H52.0228V101.886H51.1039V104.444H50.3725V101.886H50.3762Z" fill="#0E8754"/>
<path d="M55.1175 104.444L54.9006 103.786H53.809L53.5848 104.444H52.8276L54.0479 101.188H54.6838L55.8783 104.444H55.1211H55.1175ZM54.3603 102.117L54.0075 103.15H54.7095L54.3603 102.117Z" fill="#0E8754"/>
<path d="M57.2676 104.444V101.188H57.999V103.749H59.6199V104.444H57.2676Z" fill="#0E8754"/>
<path d="M63.5049 101.886H62.5824V101.184H65.1516V101.886H64.2327V104.444H63.5013V101.886H63.5049Z" fill="#0E8754"/>
<path d="M66.7761 101.621C67.1069 101.29 67.5075 101.129 67.989 101.129C68.4705 101.129 68.8711 101.29 69.1982 101.621C69.529 101.948 69.6907 102.345 69.6907 102.816C69.6907 103.286 69.529 103.683 69.2019 104.01C68.8748 104.334 68.4705 104.495 67.9853 104.495C67.5001 104.495 67.0958 104.334 66.7724 104.01C66.4489 103.687 66.2872 103.294 66.2872 102.819C66.2872 102.345 66.4489 101.948 66.7761 101.621ZM68.6616 103.503C68.8417 103.319 68.9336 103.088 68.9299 102.816C68.9262 102.536 68.8343 102.305 68.6506 102.125C68.4705 101.941 68.2463 101.845 67.9853 101.845C67.7243 101.845 67.4965 101.937 67.3164 102.125C67.1363 102.308 67.0444 102.54 67.0444 102.816C67.0444 103.091 67.1363 103.319 67.3164 103.503C67.4965 103.683 67.7207 103.775 67.9853 103.775C68.2499 103.775 68.4778 103.683 68.6579 103.503H68.6616Z" fill="#0E8754"/>
<path d="M71.2124 104.444V101.188H72.5135C73.0134 101.188 73.3993 101.335 73.6786 101.629C73.9617 101.919 74.1013 102.316 74.1013 102.819C74.1013 103.323 73.9617 103.72 73.675 104.01C73.3883 104.301 72.995 104.448 72.4951 104.448H71.2161L71.2124 104.444ZM71.9401 103.742H72.5209C72.7855 103.742 72.9877 103.654 73.131 103.477C73.278 103.297 73.3479 103.077 73.3479 102.812C73.3479 102.547 73.278 102.327 73.131 102.15C72.9913 101.974 72.7855 101.886 72.5209 101.886H71.9401V103.742Z" fill="#0E8754"/>
<path d="M75.95 101.621C76.2808 101.29 76.6814 101.129 77.1629 101.129C77.6444 101.129 78.045 101.29 78.3722 101.621C78.7029 101.948 78.8647 102.345 78.8647 102.816C78.8647 103.286 78.703 103.683 78.3758 104.01C78.0487 104.334 77.6444 104.495 77.1592 104.495C76.6741 104.495 76.2698 104.334 75.9463 104.01C75.6229 103.687 75.4612 103.294 75.4612 102.819C75.4612 102.345 75.6229 101.948 75.95 101.621ZM77.8355 103.503C78.0156 103.319 78.1075 103.088 78.1038 102.816C78.1002 102.536 78.0083 102.305 77.8245 102.125C77.6444 101.941 77.4202 101.845 77.1592 101.845C76.8983 101.845 76.6704 101.937 76.4903 102.125C76.3102 102.308 76.2183 102.54 76.2183 102.816C76.2183 103.091 76.3102 103.319 76.4903 103.503C76.6704 103.683 76.8946 103.775 77.1592 103.775C77.4239 103.775 77.6518 103.683 77.8319 103.503H77.8355Z" fill="#0E8754"/>
<path d="M80.0776 103.911L80.4746 103.389C80.7172 103.676 81.0112 103.819 81.3604 103.819C81.6066 103.819 81.7867 103.705 81.7867 103.525C81.7867 103.407 81.6948 103.305 81.5037 103.22L81.2134 103.113C81.0296 103.044 80.8862 102.981 80.7944 102.933C80.4452 102.742 80.2688 102.467 80.2688 102.11C80.2688 101.827 80.3754 101.595 80.5922 101.408C80.8091 101.224 81.0921 101.132 81.4302 101.132C81.8602 101.132 82.2315 101.279 82.5365 101.562L82.1763 102.106C81.9852 101.926 81.6838 101.816 81.4412 101.816C81.1987 101.816 81.0553 101.926 81.0553 102.084C81.0553 102.195 81.1435 102.29 81.3199 102.371L81.636 102.5C81.8051 102.566 81.9264 102.614 82.0109 102.654C82.4042 102.83 82.5953 103.11 82.5953 103.481C82.5953 103.775 82.4814 104.021 82.2498 104.212C82.0256 104.403 81.7243 104.499 81.3567 104.499C80.8421 104.499 80.379 104.293 80.0776 103.907V103.911Z" fill="#0E8754"/>
<path d="M86.517 101.621C86.8478 101.29 87.2485 101.129 87.7299 101.129C88.2114 101.129 88.6121 101.29 88.9392 101.621C89.27 101.948 89.4317 102.345 89.4317 102.816C89.4317 103.286 89.27 103.683 88.9429 104.01C88.6157 104.334 88.2114 104.495 87.7263 104.495C87.2411 104.495 86.8368 104.334 86.5134 104.01C86.1899 103.687 86.0282 103.294 86.0282 102.819C86.0282 102.345 86.1899 101.948 86.517 101.621ZM88.4026 103.503C88.5827 103.319 88.6745 103.088 88.6709 102.816C88.6672 102.536 88.5753 102.305 88.3915 102.125C88.2114 101.941 87.9872 101.845 87.7263 101.845C87.4653 101.845 87.2374 101.937 87.0573 102.125C86.8772 102.308 86.7853 102.54 86.7853 102.816C86.7853 103.091 86.8772 103.319 87.0573 103.503C87.2374 103.683 87.4616 103.775 87.7263 103.775C87.9909 103.775 88.2188 103.683 88.3989 103.503H88.4026Z" fill="#0E8754"/>
<path d="M90.6445 103.911L91.0415 103.389C91.2841 103.676 91.5781 103.819 91.9273 103.819C92.1735 103.819 92.3536 103.705 92.3536 103.525C92.3536 103.407 92.2617 103.305 92.0706 103.22L91.7803 103.113C91.5965 103.044 91.4531 102.981 91.3613 102.933C91.0121 102.742 90.8357 102.467 90.8357 102.11C90.8357 101.827 90.9422 101.595 91.1591 101.408C91.376 101.224 91.659 101.132 91.9971 101.132C92.4271 101.132 92.7984 101.279 93.1034 101.562L92.7432 102.106C92.5521 101.926 92.2507 101.816 92.0081 101.816C91.7656 101.816 91.6222 101.926 91.6222 102.084C91.6222 102.195 91.7104 102.29 91.8868 102.371L92.2029 102.5C92.372 102.566 92.4933 102.614 92.5778 102.654C92.9711 102.83 93.1622 103.11 93.1622 103.481C93.1622 103.775 93.0483 104.021 92.8167 104.212C92.5925 104.403 92.2911 104.499 91.9236 104.499C91.409 104.499 90.9459 104.293 90.6445 103.907V103.911Z" fill="#0E8754"/>
<path d="M96.7753 104.444V101.188H98.0764C98.5763 101.188 98.9622 101.335 99.2415 101.629C99.5245 101.919 99.6642 102.316 99.6642 102.819C99.6642 103.323 99.5245 103.72 99.2378 104.01C98.9512 104.301 98.5579 104.448 98.058 104.448H96.7789L96.7753 104.444ZM97.503 103.742H98.0837C98.3484 103.742 98.5505 103.654 98.6939 103.477C98.8409 103.297 98.9107 103.077 98.9107 102.812C98.9107 102.547 98.8409 102.327 98.6939 102.15C98.5542 101.974 98.3484 101.886 98.0837 101.886H97.503V103.742Z" fill="#0E8754"/>
<path d="M101.204 101.188H101.936V104.444H101.204V101.188Z" fill="#0E8754"/>
<path d="M105.611 104.444L105.394 103.786H104.303L104.078 104.444H103.321L104.542 101.188H105.177L106.372 104.444H105.615H105.611ZM104.854 102.117L104.501 103.15H105.203L104.854 102.117Z" fill="#0E8754"/>
<path d="M107.379 103.911L107.776 103.389C108.018 103.676 108.312 103.819 108.662 103.819C108.908 103.819 109.088 103.705 109.088 103.525C109.088 103.408 108.996 103.305 108.805 103.22L108.515 103.114C108.331 103.044 108.187 102.981 108.096 102.934C107.746 102.742 107.57 102.467 107.57 102.11C107.57 101.827 107.676 101.596 107.893 101.408C108.11 101.224 108.393 101.133 108.731 101.133C109.161 101.133 109.533 101.28 109.838 101.563L109.477 102.107C109.286 101.926 108.985 101.816 108.742 101.816C108.5 101.816 108.356 101.926 108.356 102.085C108.356 102.195 108.445 102.29 108.621 102.371L108.937 102.5C109.106 102.566 109.228 102.614 109.312 102.654C109.705 102.831 109.896 103.11 109.896 103.481C109.896 103.775 109.783 104.021 109.551 104.213C109.327 104.404 109.025 104.499 108.658 104.499C108.143 104.499 107.68 104.293 107.379 103.908V103.911Z" fill="#0E8754"/>
<path d="M79.7248 23.2858C79.3205 21.0254 78.9639 19.7096 78.9639 19.7096C78.9639 19.7096 76.0419 20.5476 71.7931 22.4478C72.021 23.6019 72.293 25.1897 72.5208 27.0899C75.1194 25.5021 77.604 24.2488 79.7284 23.2895L79.7248 23.2858Z" fill="#0E8856"/>
<path d="M61.7112 64.0579C61.5826 63.9844 61.4576 63.9072 61.3326 63.83C56.9074 66.1529 51.4272 66.2521 46.7557 63.6021C45.7744 63.0471 44.8812 62.3929 44.0763 61.6688C45.5575 64.6386 47.9098 67.2151 51.0119 68.9757C58.1129 73.004 66.8495 71.4566 72.1863 65.7376C68.7277 66.4286 65.0191 65.9324 61.7112 64.0579Z" fill="#4DB055"/>
<path d="M55.9922 43.3429C60.1822 35.9589 66.64 30.6773 72.5208 27.0863C72.2929 25.1824 72.0209 23.602 71.7931 22.4479C63.9165 25.969 51.4603 33.1398 44.5063 45.3975C41.5549 50.602 41.5954 56.6886 44.08 61.6689C44.8849 62.3929 45.778 63.0435 46.7594 63.6022C51.4309 66.2522 56.9074 66.1529 61.3363 63.83C54.3309 59.5849 51.9271 50.5138 55.9959 43.3429H55.9922Z" fill="url(#paint0_linear_1179_643)"/>
<path d="M72.5208 27.09C73.4176 34.6063 73.594 47.0956 67.4743 57.8868C65.9821 60.5148 63.8246 62.5252 61.3363 63.8337C61.4613 63.9109 61.5862 63.9881 61.7149 64.0616C65.0228 65.9361 68.735 66.4323 72.19 65.7413C73.0978 64.7673 73.9101 63.6793 74.5937 62.4701C82.8488 47.9152 81.0368 30.6258 79.7284 23.2896C77.6039 24.2488 75.1193 25.5059 72.5208 27.09Z" fill="url(#paint1_linear_1179_643)"/>
<defs>
<linearGradient id="paint0_linear_1179_643" x1="57.9148" y1="22.0418" x2="56.6256" y2="65.6652" gradientUnits="userSpaceOnUse">
<stop stop-color="#6EB856"/>
<stop offset="0.39" stop-color="#80BD53"/>
<stop offset="0.79" stop-color="#97C451"/>
</linearGradient>
<linearGradient id="paint1_linear_1179_643" x1="71.8982" y1="23.0623" x2="70.6254" y2="66.0907" gradientUnits="userSpaceOnUse">
<stop stop-color="#218DCB"/>
<stop offset="0.19" stop-color="#3399D0"/>
<stop offset="0.56" stop-color="#61B8DF"/>
<stop offset="0.79" stop-color="#81CEE9"/>
</linearGradient>
</defs>
</svg>
