<svg width="17" height="24" viewBox="0 0 17 24" fill="none" xmlns="http://www.w3.org/2000/svg">
<path d="M8.49999 22.8626C8.29135 22.5913 8.03101 22.249 7.73313 21.8494C6.94189 20.7877 5.8882 19.3247 4.83578 17.716C3.78178 16.1048 2.73766 14.3607 1.95952 12.735C1.16966 11.0849 0.700001 9.64899 0.700001 8.62453C0.700001 4.23981 4.19996 0.7 8.5 0.7C12.7999 0.7 16.3 4.23986 16.3 8.6245L8.49999 22.8626ZM8.49999 22.8626C8.70863 22.5913 8.96896 22.249 9.26683 21.8494C10.0581 20.7877 11.1117 19.3246 12.1641 17.7159C13.2181 16.1048 14.2622 14.3606 15.0404 12.735C15.8303 11.0848 16.2999 9.64897 16.3 8.62453L8.49999 22.8626ZM12.1566 8.62458C12.1566 10.6583 10.529 12.3245 8.5 12.3245C6.47096 12.3245 4.84337 10.6581 4.84337 8.62458C4.84337 6.59085 6.47099 4.92464 8.5 4.92464C10.529 4.92464 12.1566 6.59085 12.1566 8.62458Z" stroke="#98C552" stroke-width="1.4"/>
</svg>
