<svg width="19" height="19" viewBox="0 0 19 19" fill="none" xmlns="http://www.w3.org/2000/svg">
<path d="M19 10.64C18.7752 11.0485 18.81 11.5203 18.6738 11.9573C18.4838 12.5748 18.2748 13.1797 17.9835 13.756C17.7587 14.2025 17.461 14.3545 17.1285 14.193C16.7675 14.022 16.7105 13.699 16.929 13.2208C18.449 9.89583 18.1007 6.77033 15.7067 4.01217C13.6072 1.59283 10.849 0.703 7.7235 1.39333C4.58533 2.08683 2.4605 4.06283 1.54217 7.14717C0.1045 11.9732 3.18567 16.8403 8.1415 17.708C9.291 17.9107 10.4468 17.8727 11.5647 17.5465C12.6888 17.2203 13.3475 16.036 13.4108 14.9657C13.4172 14.8485 13.3855 14.8232 13.2398 14.8232C8.82867 14.8232 5.244 11.9257 4.32567 7.61583C4.21167 7.08067 4.15783 6.53283 4.15467 5.985C4.15467 5.02233 5.46883 3.96467 6.346 4.22117C6.85267 4.37 7.1915 4.7025 7.34983 5.206C7.467 5.57967 7.55567 5.96283 7.676 6.3365C7.88183 6.97933 7.74883 7.53667 7.2295 7.96417C6.93817 8.20167 6.92867 8.42333 7.06167 8.75583C7.695 10.3518 8.8065 11.4348 10.4278 12.0017C10.6305 12.0713 10.7667 12.0777 10.9028 11.9035C11.4348 11.2353 12.0998 11.0833 12.8915 11.3937C13.1638 11.5013 13.4583 11.5488 13.7402 11.6375C14.7282 11.9415 15.1082 12.863 14.5952 13.7497C14.5033 13.908 14.5255 14.0442 14.5477 14.193C14.7852 15.8903 14.0252 17.5148 12.5717 18.392C11.9795 18.7498 11.3082 18.8227 10.6432 18.9208C10.5577 18.9335 10.4405 18.867 10.3898 19H8.44867C7.258 18.9113 6.13067 18.601 5.08567 18.0247C2.51433 16.6092 0.823333 14.5065 0.136167 11.6312C0.0506667 11.2765 0.1045 10.906 0 10.5577V8.4455C0.0886667 7.27067 0.392667 6.15283 0.956333 5.1205C2.36867 2.53017 4.48083 0.829667 7.36883 0.136167C7.74883 0.0443333 8.14783 0.095 8.52783 0H10.3867C11.3588 0.0506667 12.3025 0.234333 13.1923 0.6365C16.1785 1.976 18.0943 4.22117 18.8702 7.41317C18.9588 7.7805 18.9082 8.16367 19 8.531V10.6432V10.64Z" fill="#98C552"/>
</svg>
