<svg width="20" height="20" viewBox="0 0 20 20" fill="none" xmlns="http://www.w3.org/2000/svg">
<path fill-rule="evenodd" clip-rule="evenodd" d="M20 10C20 15.5228 15.5228 20 10 20C4.47715 20 0 15.5228 0 10C0 4.47715 4.47715 0 10 0C15.5228 0 20 4.47715 20 10ZM6.63642 12.2548C7.0051 12.531 7.45099 12.6849 7.91154 12.6948C7.63153 12.9183 7.32396 13.1048 6.99639 13.2499C6.27469 13.5675 5.4853 13.7003 4.69942 13.6366C4.70462 13.6514 4.71466 13.664 4.7279 13.6724C5.48422 14.1393 6.33128 14.4399 7.21275 14.5542C7.99691 14.6581 8.79341 14.6191 9.56366 14.439C10.8078 14.1637 11.9278 13.489 12.7528 12.5178C13.8262 11.2951 14.3974 9.71152 14.3515 8.08509C14.3491 8.05774 14.3543 8.03026 14.3665 8.00566C14.3787 7.98107 14.3974 7.96031 14.4206 7.94569C14.5972 7.81674 14.7622 7.67277 14.914 7.51539C15.0079 7.41721 15.1024 7.31478 15.1897 7.20933C15.251 7.13527 15.3081 7.05763 15.3652 6.97997C15.3894 6.94704 15.4137 6.91411 15.4382 6.88145C15.0516 7.03486 14.6465 7.13675 14.2334 7.18448C14.4456 7.04015 14.6346 6.8644 14.794 6.66327C14.9569 6.45916 15.0782 6.22503 15.1509 5.97418C14.9456 6.09739 14.73 6.20283 14.5067 6.28933C14.2867 6.37361 14.0609 6.44167 13.8309 6.49296C13.8051 6.50132 13.7774 6.5018 13.7512 6.49436C13.7251 6.48691 13.7018 6.47187 13.6843 6.45115C13.3633 6.12501 12.9448 5.91227 12.4921 5.84509C12.103 5.77263 11.7013 5.80904 11.3315 5.95031C10.9617 6.09158 10.6381 6.33222 10.3964 6.64569C10.1901 6.8948 10.043 7.1875 9.96627 7.50171C9.88953 7.81593 9.88511 8.14346 9.95336 8.45963C9.96184 8.51478 9.96609 8.54266 9.89275 8.5366C9.57305 8.51416 9.25531 8.4694 8.94184 8.40266C7.57447 8.10653 6.3447 7.36338 5.44669 6.29054C5.4422 6.28533 5.43813 6.27939 5.434 6.27337C5.42084 6.25419 5.40712 6.23418 5.3776 6.23418C5.09991 6.71532 5.01542 7.284 5.14124 7.82509C5.26494 8.3773 5.59518 8.86128 6.06427 9.17781C5.71746 9.1656 5.37815 9.07351 5.07275 8.90872C5.06329 9.11657 5.08786 9.32456 5.14548 9.52448C5.19823 9.71813 5.278 9.90339 5.38245 10.0748C5.48775 10.2501 5.61663 10.4102 5.76548 10.5505C5.91197 10.6879 6.07603 10.8053 6.25336 10.8996C6.43641 10.9939 6.63069 11.0646 6.83154 11.1099C6.51321 11.1943 6.18051 11.2096 5.85578 11.1548C5.99476 11.594 6.26773 11.9786 6.63642 12.2548Z" fill="#98C552"/>
</svg>
