<svg width="20" height="21" viewBox="0 0 20 21" fill="none" xmlns="http://www.w3.org/2000/svg">
<path fill-rule="evenodd" clip-rule="evenodd" d="M20 10.9316C20 16.4545 15.5228 20.9316 10 20.9316C4.47715 20.9316 0 16.4545 0 10.9316C0 5.40879 4.47715 0.931641 10 0.931641C15.5228 0.931641 20 5.40879 20 10.9316ZM6.63642 13.1865C7.0051 13.4627 7.45099 13.6165 7.91154 13.6264C7.63153 13.8499 7.32396 14.0365 6.99639 14.1816C6.27469 14.4991 5.4853 14.632 4.69942 14.5682C4.70462 14.583 4.71466 14.5956 4.7279 14.604C5.48422 15.071 6.33128 15.3716 7.21275 15.4858C7.99691 15.5897 8.79341 15.5507 9.56366 15.3707C10.8078 15.0953 11.9278 14.4206 12.7528 13.4495C13.8262 12.2267 14.3974 10.6432 14.3515 9.01673C14.3491 8.98938 14.3543 8.9619 14.3665 8.9373C14.3787 8.91271 14.3974 8.89195 14.4206 8.87733C14.5972 8.74838 14.7622 8.60441 14.914 8.44703C15.0079 8.34885 15.1024 8.24642 15.1897 8.14097C15.251 8.06691 15.3081 7.98927 15.3652 7.91161C15.3894 7.87868 15.4137 7.84575 15.4382 7.81309C15.0516 7.9665 14.6465 8.06839 14.2334 8.11612C14.4456 7.97179 14.6346 7.79604 14.794 7.59491C14.9569 7.3908 15.0782 7.15667 15.1509 6.90582C14.9456 7.02903 14.73 7.13447 14.5067 7.22097C14.2867 7.30525 14.0609 7.37331 13.8309 7.42461C13.8051 7.43296 13.7774 7.43344 13.7512 7.426C13.7251 7.41855 13.7018 7.40351 13.6843 7.38279C13.3633 7.05665 12.9448 6.84391 12.4921 6.77673C12.103 6.70427 11.7013 6.74068 11.3315 6.88195C10.9617 7.02322 10.6381 7.26386 10.3964 7.57733C10.1901 7.82644 10.043 8.11914 9.96627 8.43335C9.88953 8.74757 9.88511 9.0751 9.95336 9.39127C9.96184 9.44642 9.96609 9.4743 9.89275 9.46824C9.57305 9.4458 9.25531 9.40104 8.94184 9.3343C7.57447 9.03817 6.3447 8.29502 5.44669 7.22218C5.4422 7.21697 5.43813 7.21103 5.434 7.20501C5.42084 7.18583 5.40712 7.16582 5.3776 7.16582C5.09991 7.64696 5.01542 8.21564 5.14124 8.75673C5.26494 9.30894 5.59518 9.79292 6.06427 10.1095C5.71746 10.0972 5.37815 10.0052 5.07275 9.84036C5.06329 10.0482 5.08786 10.2562 5.14548 10.4561C5.19823 10.6498 5.278 10.835 5.38245 11.0064C5.48775 11.1818 5.61663 11.3419 5.76548 11.4822C5.91197 11.6196 6.07603 11.737 6.25336 11.8313C6.43641 11.9256 6.63069 11.9962 6.83154 12.0416C6.51321 12.126 6.18051 12.1413 5.85578 12.0864C5.99476 12.5256 6.26773 12.9103 6.63642 13.1865Z" fill="url(#paint0_linear_1179_698)"/>
<defs>
<linearGradient id="paint0_linear_1179_698" x1="8.99999" y1="0.931642" x2="30.4067" y2="25.2149" gradientUnits="userSpaceOnUse">
<stop stop-color="#96CC43"/>
<stop offset="1" stop-color="#1497D5"/>
</linearGradient>
</defs>
</svg>
