<svg width="18" height="19" viewBox="0 0 18 19" fill="none" xmlns="http://www.w3.org/2000/svg">
<path d="M10.1541 0.631016C7.89033 0.397672 5.83104 1.00639 4.0249 2.45718C2.03376 4.05508 0.909184 6.18054 0.651164 8.77776C0.466169 10.6293 0.816686 12.3895 1.69785 14.0229C1.78061 14.1751 1.79035 14.3121 1.74653 14.4744C1.35707 15.8846 0.97734 17.2948 0.583008 18.7456C0.656032 18.7304 0.694979 18.7202 0.733925 18.7101C2.06784 18.355 3.39689 17.9999 4.72593 17.6347C4.94988 17.5738 5.13487 17.5992 5.34421 17.7108C7.16495 18.6847 9.08793 18.9384 11.0791 18.5173C12.6953 18.1724 14.1072 17.3912 15.2999 16.1991C16.8285 14.6672 17.7292 12.7953 17.9482 10.5989C18.1868 8.20454 17.6026 6.02329 16.1811 4.11595C14.6524 2.06151 12.6321 0.88465 10.1541 0.631016ZM13.1092 16.0317C11.8044 16.8687 10.3878 17.239 8.86886 17.1528C7.65178 17.0818 6.51747 16.7013 5.48052 16.0216C5.33447 15.9252 5.21276 15.91 5.05211 15.9556C4.34621 16.1535 3.6403 16.331 2.93927 16.5288C2.73967 16.5846 2.70072 16.5593 2.76401 16.3411C2.96361 15.636 3.14374 14.9309 3.34334 14.2258C3.39202 14.0584 3.36768 13.9316 3.28005 13.7845C2.21389 12.0598 1.85363 10.1829 2.22849 8.16396C2.80295 5.06962 5.25658 2.64995 8.25545 2.19848C8.6011 2.14775 8.95162 2.13761 9.24372 2.11224C12.7051 2.1021 15.6747 4.62322 16.3855 8.12845C17.0038 11.167 15.6601 14.3983 13.1092 16.0317Z" fill="#96C451"/>
<path d="M13.4597 11.5576C12.9048 11.2887 12.3449 11.0199 11.785 10.751C11.5027 10.6141 11.4248 10.6394 11.2301 10.8981C11.0256 11.1721 10.8211 11.446 10.6215 11.7199C10.529 11.8467 10.4268 11.9127 10.2661 11.8467C8.9517 11.3141 7.91962 10.4365 7.20885 9.15821C7.10661 8.97559 7.12609 8.83355 7.2624 8.68137C7.45713 8.46325 7.63239 8.23498 7.82225 8.01685C7.95856 7.8596 7.97804 7.69727 7.89528 7.50451C7.64213 6.90085 7.39871 6.2972 7.1553 5.68848C7.08227 5.50586 6.9557 5.40948 6.76583 5.40441C6.66847 5.40441 6.5711 5.40441 6.47374 5.40441C6.26927 5.38412 6.05993 5.35875 5.88954 5.50586C5.43679 5.89139 5.0814 6.353 4.96456 6.97695C4.83312 7.66683 4.94022 8.33643 5.23719 8.94515C6.44453 11.3953 8.29448 13.0743 10.8503 13.8606C12.0869 14.2411 13.4889 13.6729 13.7178 12.0953C13.7616 11.7808 13.7324 11.6895 13.4597 11.5576Z" fill="#96C451"/>
</svg>
