<svg width="20" height="20" viewBox="0 0 20 20" fill="none" xmlns="http://www.w3.org/2000/svg">
<path fill-rule="evenodd" clip-rule="evenodd" d="M20 10C20 15.5228 15.5228 20 10 20C4.47715 20 0 15.5228 0 10C0 4.47715 4.47715 0 10 0C15.5228 0 20 4.47715 20 10ZM14.025 6.6692C14.2359 6.82687 14.3887 7.04993 14.4595 7.30358C14.5423 7.59222 14.5992 7.88765 14.6295 8.18638C14.6627 8.41706 14.6797 8.64973 14.6966 8.8815C14.703 8.96819 14.7093 9.05476 14.7164 9.14105V10.7232C14.7113 10.7738 14.7065 10.8249 14.7018 10.8762C14.6928 10.9738 14.6837 11.072 14.6714 11.1684C14.6342 11.6108 14.5699 12.0505 14.4788 12.4851C14.4193 12.7623 14.2635 13.0096 14.0391 13.1829C13.8147 13.3563 13.5361 13.4446 13.2528 13.4322C12.759 13.4554 12.2655 13.4752 11.7719 13.4951C11.5449 13.5043 11.3179 13.5134 11.0908 13.5229C11.0358 13.5256 10.9829 13.5343 10.9291 13.5432C10.909 13.5465 10.8888 13.5498 10.8683 13.5529H9.13269C9.04121 13.5474 8.94972 13.541 8.85798 13.5345C8.76256 13.5278 8.66687 13.5211 8.57062 13.5154C8.32425 13.5017 8.07753 13.4905 7.8307 13.4792C7.33275 13.4566 6.83433 13.434 6.33734 13.3909C6.09899 13.3815 5.87003 13.2955 5.68443 13.1456C5.49884 12.9958 5.3665 12.7901 5.30705 12.5591C5.23299 12.2813 5.17763 11.999 5.14132 11.7138C5.11197 11.5099 5.09582 11.3044 5.07972 11.0995C5.07287 11.0123 5.06603 10.9253 5.05819 10.8385V9.0252C5.06315 8.98023 5.0677 8.93532 5.07224 8.89046C5.08146 8.79939 5.09067 8.70849 5.10324 8.61759C5.14701 8.18882 5.21379 7.76272 5.30329 7.34112C5.36533 7.07777 5.51598 6.84374 5.73001 6.67824C5.94404 6.51274 6.20845 6.42582 6.47893 6.43204C6.95598 6.40892 7.43304 6.38907 7.91009 6.36921C8.13027 6.36005 8.35044 6.35088 8.57062 6.3414C8.63527 6.33859 8.70022 6.32946 8.76525 6.32033C8.78708 6.31726 8.80891 6.3142 8.83074 6.31137H10.9433C10.9652 6.3142 10.9871 6.31727 11.0091 6.32033C11.0744 6.32947 11.1396 6.33859 11.2019 6.3414C11.422 6.35089 11.6422 6.36005 11.8624 6.36921C12.3394 6.38907 12.8165 6.40892 13.2935 6.43204C13.5569 6.42815 13.8141 6.51154 14.025 6.6692ZM8.68754 8.11076V11.7514C9.27938 11.3973 9.86191 11.0481 10.4492 10.6961C10.8688 10.4445 11.2909 10.1916 11.7205 9.93428C11.3086 9.68629 10.9027 9.44276 10.4992 9.20067C9.89399 8.83752 9.29414 8.47761 8.68754 8.11076Z" fill="#98C552"/>
</svg>
