<svg width="20" height="21" viewBox="0 0 20 21" fill="none" xmlns="http://www.w3.org/2000/svg">
<path fill-rule="evenodd" clip-rule="evenodd" d="M20 10.9316C20 16.4545 15.5228 20.9316 10 20.9316C4.47715 20.9316 0 16.4545 0 10.9316C0 5.40879 4.47715 0.931641 10 0.931641C15.5228 0.931641 20 5.40879 20 10.9316ZM14.025 7.60084C14.2359 7.75851 14.3887 7.98157 14.4595 8.23522C14.5423 8.52386 14.5992 8.81929 14.6295 9.11802C14.6627 9.34871 14.6797 9.58138 14.6966 9.81315C14.703 9.89984 14.7093 9.9864 14.7164 10.0727V11.6549C14.7113 11.7055 14.7065 11.7566 14.7018 11.8078C14.6928 11.9054 14.6837 12.0037 14.6714 12.1C14.6342 12.5424 14.5699 12.9822 14.4788 13.4167C14.4193 13.694 14.2635 13.9412 14.0391 14.1146C13.8147 14.288 13.5361 14.3763 13.2528 14.3639C12.7591 14.387 12.2656 14.4069 11.772 14.4268C11.545 14.4359 11.3179 14.445 11.0908 14.4545C11.0357 14.4572 10.9829 14.466 10.9291 14.4748C10.909 14.4782 10.8888 14.4815 10.8683 14.4845H9.13269C9.04121 14.479 8.94972 14.4726 8.85798 14.4662C8.76256 14.4595 8.66687 14.4527 8.57062 14.447C8.32425 14.4333 8.07753 14.4221 7.8307 14.4109C7.33275 14.3883 6.83433 14.3656 6.33734 14.3226C6.09899 14.3131 5.87003 14.2271 5.68443 14.0773C5.49884 13.9274 5.3665 13.7217 5.30705 13.4907C5.23299 13.213 5.17763 12.9306 5.14132 12.6455C5.11197 12.4415 5.09582 12.236 5.07972 12.0311C5.07287 11.944 5.06603 11.8569 5.05819 11.7702V9.95684C5.06315 9.91187 5.0677 9.86697 5.07224 9.8221C5.08146 9.73103 5.09067 9.64013 5.10324 9.54923C5.14701 9.12046 5.21379 8.69436 5.30329 8.27276C5.36533 8.00941 5.51598 7.77538 5.73001 7.60988C5.94404 7.44438 6.20845 7.35746 6.47893 7.36368C6.95598 7.34056 7.43304 7.32071 7.91009 7.30085C8.13027 7.29169 8.35044 7.28253 8.57062 7.27304C8.63527 7.27023 8.70022 7.26111 8.76525 7.25197C8.78708 7.2489 8.80891 7.24584 8.83074 7.24301H10.9433C10.9652 7.24584 10.9871 7.24891 11.0091 7.25197C11.0744 7.26111 11.1396 7.27023 11.2019 7.27304C11.422 7.28253 11.6422 7.29169 11.8624 7.30085C12.3394 7.32071 12.8165 7.34056 13.2935 7.36368C13.5569 7.35979 13.8141 7.44318 14.025 7.60084ZM8.68754 9.0424V12.683C9.27935 12.3289 9.86186 11.9798 10.4491 11.6278C10.8688 11.3762 11.2909 11.1232 11.7205 10.8659C11.3086 10.6179 10.9028 10.3744 10.4993 10.1323C9.89402 9.76918 9.29416 9.40926 8.68754 9.0424Z" fill="url(#paint0_linear_1179_692)"/>
<defs>
<linearGradient id="paint0_linear_1179_692" x1="8.99999" y1="0.931642" x2="30.4067" y2="25.2149" gradientUnits="userSpaceOnUse">
<stop stop-color="#96CC43"/>
<stop offset="1" stop-color="#1497D5"/>
</linearGradient>
</defs>
</svg>
